<svg width="1778" height="455" viewBox="0 0 1778 455" fill="none" xmlns="http://www.w3.org/2000/svg">
<path d="M1.37273 387.97L4.64867 401.848L34.9096 402.762L145.238 444.844L281.841 449.225L322.1 439.721L503.267 396.954L610.162 371.721L637.148 383.595L674.089 399.85L720.68 420.351L757.356 436.489L783.524 448.003L834.82 454.208L896.25 439.706L957.68 425.205L982.668 419.306L1002.17 396.388L1056.32 383.608L1282.33 330.255L1297.88 351.467L1305.78 369.403L1316.06 366.978L1311.63 348.223L1340.93 366.19L1462.6 440.8L1531.53 434.784L1544.02 431.835L1585.67 422.004L1574.63 292.753L1588.02 289.593L1631.07 279.429L1695.01 264.335L1720.7 258.272L1733.09 244.027L1739.14 237.07L1739.06 218.043L1776.41 218.016L1776.19 195.359L1771.14 184.83L1781.5 186.781L1780.54 167.227L1775.92 153.667L1780.04 152.694L1777.42 129.141L1770.79 107.265L1766.13 108.363L1763.51 95.0644L1756.02 72.6581L1727.69 83.0095L1720.13 78.9332L1658.88 92.6587L1674.84 76.4387L1733.89 72.0228L1732.59 62.8061L1745.4 64.9102L1745.46 34.1153L1730.82 3.15532L1716.5 12.2869L1714.16 7.08785L1661.25 31.2984L1616.37 24.3129L1612.76 9.04764L1642.72 -19.2675L1708.1 -18.5855L1707.7 -30.2118L1722.14 -33.62L1721.08 -67.0676L1706.25 -100.926L1642.24 -74.0937L1605.07 -88.7603L1548.43 -83.4482L1609.51 -97.8676L1653.07 -108.15L1666.43 -111.304L1670 -122.556L1705.5 -127.852L1702.46 -148.013L1696.82 -164.628L1701.92 -165.832L1698.8 -191.467L1690.78 -213.016L1686.85 -212.087L1686.66 -214.972L1678.27 -234.969L1668.05 -229.626L1660.02 -240.915L1642.26 -232.327L1629.77 -236.338L1617.28 -240.349L1592.3 -248.372L1519.42 -231.167L1471.52 -219.861L1456.83 -216.391L1442.13 -212.921L1396.49 -314.226L1359 -305.377L1344.43 -301.936L1276.9 -271.346L1209.85 -161.155L1190.98 -144.837L1183.29 -165.005L1171.49 -162.22L1173.1 -139.89L1172.12 -128.519L1164.21 -121.676L1083.69 -102.668L969.158 -75.6322L881.755 -54.9996L853.434 -62.965L776.548 -42.5383L699.662 -22.1117L680.846 -14.8983L662.627 7.25794L614.824 65.3889L567.022 123.52L547.046 147.811L449.869 170.751L268.702 213.518L228.443 223.021L107.565 285.253L27.7025 372.232L1.37273 387.97Z" fill="white" fill-opacity="0.07"/>
<path d="M34.9096 402.762L4.64867 401.848L1.37272 387.97L27.7025 372.232M34.9096 402.762L27.7025 372.232M34.9096 402.762L145.238 444.844M34.9096 402.762L114.992 403.637M27.7025 372.232L107.565 285.253M27.7025 372.232L98.612 334.249M107.565 285.253L228.443 223.021M107.565 285.253L98.612 334.249M228.443 223.021L217.338 290.839M228.443 223.021L268.702 213.518M449.869 170.751L268.702 213.518M449.869 170.751L445.611 186.041M449.869 170.751L547.046 147.811M145.238 444.844L281.841 449.225M145.238 444.844L114.992 403.637M281.841 449.225L241.744 394.226M281.841 449.225L322.1 439.721M503.267 396.954L322.1 439.721M503.267 396.954L492.657 385.335M503.267 396.954L610.162 371.721M217.338 290.839L241.744 394.226M217.338 290.839L98.612 334.249M217.338 290.839L259.68 280.844M241.744 394.226L114.992 403.637M241.744 394.226L284.086 384.231M98.612 334.249L114.992 403.637M268.702 213.518L259.68 280.844M259.68 280.844L284.086 384.231M259.68 280.844L430.435 240.535M284.086 384.231L322.1 439.721M284.086 384.231L454.84 343.922M430.435 240.535L571.342 207.272M430.435 240.535L433.629 254.066M430.435 240.535L436.549 218.581M454.84 343.922L595.748 310.66M454.84 343.922L452.793 335.249L450.746 326.576M454.84 343.922L470.076 360.607M575.506 141.093L574.593 155.593M575.506 141.093L547.046 147.811M575.506 141.093L568.451 129.573M575.506 141.093L624.608 131.798M571.342 207.272L574.536 220.803M571.342 207.272L572.652 186.452M595.748 310.66L593.7 301.986L591.653 293.313M595.748 310.66L598.891 316.028M628.903 367.296L621.639 354.887M628.903 367.296L610.162 371.721M628.903 367.296L633.115 375.825M628.903 367.296C645.929 363.719 661.268 360.495 675.681 357.466M436.823 267.596L449.317 264.647M436.823 267.596L440.303 282.341M436.823 267.596L433.629 254.066M577.73 234.333L477.776 257.929M577.73 234.333L581.211 249.078M577.73 234.333L575.575 225.203L574.536 220.803M450.746 326.576L491.699 316.908M450.746 326.576L447.265 311.831M591.653 293.313L521.546 309.862M591.653 293.313L588.172 278.568M584.692 263.823L514.585 280.373M584.692 263.823L588.172 278.568M584.692 263.823L581.211 249.078M484.738 287.418L456.278 294.137M484.738 287.418L514.585 280.373M484.738 287.418L488.218 302.163M484.738 287.418L481.257 272.674M477.776 257.929L449.317 264.647M477.776 257.929L481.257 272.674M449.317 264.647L452.798 279.392M456.278 294.137L443.784 297.086M456.278 294.137L452.798 279.392M491.699 316.908L521.546 309.862M491.699 316.908L488.218 302.163M514.585 280.373L518.066 295.117M521.546 309.862L518.066 295.117M518.066 295.117L588.172 278.568M488.218 302.163L447.265 311.831M447.265 311.831L443.784 297.086M443.784 297.086L440.303 282.341M452.798 279.392L440.303 282.341M481.257 272.674L581.211 249.078M433.629 254.066L574.536 220.803M574.536 220.803L710.518 188.703M436.549 218.581L572.652 186.452M436.549 218.581L441.353 201.331M572.652 186.452L573.681 170.093M441.353 201.331L573.681 170.093M441.353 201.331L445.611 186.041M573.681 170.093L574.137 162.843L574.593 155.593M573.681 170.093L710.307 137.841M445.611 186.041L574.593 155.593M470.076 360.607L606.179 328.478M470.076 360.607L482.046 373.716M606.179 328.478L614.375 342.478M606.179 328.478L598.891 316.028M482.046 373.716L614.375 342.478M482.046 373.716L492.657 385.335M614.375 342.478L621.639 354.887M492.657 385.335L621.639 354.887M763.497 105.506L755.853 94.8575M763.497 105.506L719.305 113.872M763.497 105.506L809.333 94.6861M993.252 51.27L943.784 75.5837L915.824 89.3263M993.252 51.27L1097.73 -2.84731M993.252 51.27L916.204 69.458M993.252 51.27L981.298 25.4654M993.252 51.27L976.498 79.6359M852.735 120.335L915.824 89.3263M852.735 120.335L932.56 101.492M852.735 120.335L837.193 127.447M710.518 188.703L710.307 137.841M710.518 188.703L769.074 160.175M710.518 188.703L743.636 210.736M710.518 188.703L645.102 227.928M628.411 237.936L615.927 256.45M628.411 237.936L645.102 227.928M628.411 237.936L626.339 253.992M615.927 256.45L620.595 276.225M615.927 256.45L626.339 253.992M620.595 276.225L639.836 286.334M620.595 276.225L631.581 276.196M639.836 286.334L659.722 288.599M639.836 286.334L631.581 276.196M736.265 297.77L697.068 292.852M736.265 297.77L800.598 299.926M736.265 297.77L761.622 277.614M877.15 301.369L863.604 281.126M877.15 301.369L1002.09 271.875M877.15 301.369L858.051 301.172M843.065 222.976L842.082 218.813M843.065 222.976L844.255 228.016M843.065 222.976L968.351 194.128M821.651 134.559L837.193 127.447M821.651 134.559L797.991 146.086M821.651 134.559L809.057 160.314M1389.85 95.3662L1248.25 128.793M1389.85 95.3662L1378.29 27.7711M1389.85 95.3662L1392.56 102.784M697.068 292.852L679.608 290.864L659.722 288.599M697.068 292.852L598.891 316.028M915.824 89.3263L796.378 117.523M547.046 147.811L567.022 123.52M680.846 -14.8983L699.662 -22.1117M680.846 -14.8983L674.073 34.3156M680.846 -14.8983L662.627 7.25793M699.662 -22.1117L697.49 21.4624M699.662 -22.1117L776.548 -42.5383M853.434 -62.965L881.755 -54.9996M853.434 -62.965L849.504 -14.4221M853.434 -62.965L776.548 -42.5383M881.755 -54.9996L881.68 -31.907M881.755 -54.9996L969.158 -75.6322M881.605 -8.81434L855.728 11.9451M881.605 -8.81434L849.504 -14.4221M881.605 -8.81434L881.68 -31.907M881.605 -8.81434L886.799 13.1858M855.728 11.9451L784.927 28.6584M855.728 11.9451L849.504 -14.4221M855.728 11.9451L857.752 20.5184M712.044 45.8634L697.49 21.4624M712.044 45.8634L737.033 39.9645M712.044 45.8634L673.867 54.8754L656.428 52.3993M697.49 21.4624L674.073 34.3156M697.49 21.4624L773.497 3.52014M849.504 -14.4221L773.497 3.52014M674.073 34.3156L656.428 52.3993M656.428 52.3993L662.627 7.25793M656.428 52.3993L628.994 76.4563M662.627 7.25793L614.824 65.3889M746.742 81.0948L755.853 94.8575M746.742 81.0948L739.49 50.3726M746.742 81.0948L794.637 69.7887M737.033 39.9645L739.49 50.3726M737.033 39.9645L784.927 28.6584M567.022 123.52L568.451 129.573M567.022 123.52L614.824 65.3889M567.022 123.52L609.696 93.4651M628.994 76.4563L655.75 77.4657M628.994 76.4563L638.327 99.8921L661.365 101.249M628.994 76.4563L702.701 59.057L711.974 64.1934M628.994 76.4563L609.696 93.4651M655.75 77.4657L711.974 64.1934M655.75 77.4657L661.365 101.249M711.974 64.1934L717.707 88.479L661.365 101.249M568.451 129.573L755.853 94.8575M1164.21 -121.676L1165.48 -98.9011M1164.21 -121.676L1083.69 -102.668M1164.21 -121.676L1172.12 -128.519M1166.02 -89.1406L1142 -51.2366M1166.02 -89.1406L1165.48 -98.9011M1166.02 -89.1406L1209.85 -161.155M1117.97 -13.3325L1142 -51.2366M1117.97 -13.3325L1097.73 -2.84731M1117.97 -13.3325L1137.17 -0.284392M1142 -51.2366L1084.59 -36.7742M739.49 50.3726L787.209 38.3262M881.68 -31.907L963.211 -51.1534M1165.48 -98.9011L1079.82 -78.6813M1276.9 -271.346L1344.43 -301.936M1276.9 -271.346L1209.85 -161.155M1276.9 -271.346L1285.65 -252.9M1344.43 -301.936L1359 -305.377M1344.43 -301.936L1285.65 -252.9M1344.43 -301.936L1378.66 -156.917M1521.18 -37.4585L1434.41 -16.9765M1521.18 -37.4585L1565.6 -47.9453M1521.18 -37.4585L1508.35 -65.9298M1285.65 -252.9L1211.41 -126.592M1285.65 -252.9L1333.66 -128.712M1137.17 -0.284392L1102.41 17.0045M1137.17 -0.284392L1133.86 53.9733M1137.17 -0.284392L1211.41 -126.592M1137.17 -0.284392L1225.73 -48.8445M932.56 101.492L963.795 94.1181M932.56 101.492L976.498 79.6359M1610.15 128.337L1561.56 139.807M1610.15 128.337L1599.35 107.444M1610.15 128.337L1611.3 119.273M1412.89 -11.8969L1434.41 -16.9765M1412.89 -11.8969L1381.66 -4.52339M1412.89 -11.8969L1378.66 -156.917M1434.41 -16.9765L1398.04 -156.098M1359 -305.377L1396.49 -314.226L1442.13 -212.921M1359 -305.377L1395.08 -167.387M1395.08 -167.387L1453.45 -187.024M1395.08 -167.387L1398.04 -156.098M1453.45 -187.024L1461.03 -170.968M1453.45 -187.024L1442.13 -212.921M1453.45 -187.024L1456.83 -216.391M1398.04 -156.098L1461.03 -170.968M1461.03 -170.968L1471.52 -219.861M1461.03 -170.968L1474.64 -140.75M1461.03 -170.968L1517.28 -184.36M963.795 94.1181L958.344 126.904M963.795 94.1181L1101.23 61.6745M963.795 94.1181L976.498 79.6359M958.344 126.904L834.121 156.229M958.344 126.904L1095.09 94.6244M958.344 126.904L968.351 194.128M834.121 156.229L837.193 127.447M834.121 156.229L809.057 160.314M834.121 156.229L835.808 180.737M987.828 251.802L863.604 281.126M987.828 251.802L1002.09 271.875M987.828 251.802L1125.96 219.194M987.828 251.802L968.351 194.128M863.604 281.126L841.196 287.148M863.604 281.126L854.843 261.218M1002.09 271.875L1140.22 239.268M1002.09 271.875L1024.77 284.104M1002.09 271.875L1146.62 266.363M1501.1 -1.21941L1378.29 27.7711M1501.1 -1.21941L1503.02 -11.9289M1501.1 -1.21941L1505.52 17.5152M1530.58 123.678L1410.55 152.013M1530.58 123.678L1561.56 139.807M1530.58 123.678L1553.65 96.9893M1530.58 123.678L1525.83 103.556M1530.58 123.678L1599.35 107.444M1101.23 61.6745L1095.09 94.6244M1101.23 61.6745L1102.41 17.0045M1101.23 61.6745L1133.86 53.9733M1095.09 94.6244L1106.65 162.22M1095.09 94.6244L1133.26 85.6123M1106.65 162.22L1112.2 160.909L1144.82 153.207M1106.65 162.22L1125.96 219.194M1106.65 162.22L968.351 194.128M1125.96 219.194L1140.22 239.268M1125.96 219.194L1163.44 210.346M1140.22 239.268L1185.34 228.617M1140.22 239.268L1146.62 266.363M1248.25 128.793L1236.69 61.1977M1248.25 128.793L1267.56 185.767M1248.25 128.793L1144.82 153.207M1236.69 61.1977L1240.06 28.9033M1236.69 61.1977L1378.29 27.7711M1236.69 61.1977L1133.26 85.6123M1240.06 28.9033L1381.66 -4.52339M1240.06 28.9033L1133.86 53.9733M1240.06 28.9033L1225.73 -48.8445M1267.56 185.767L1283.91 205.35M1267.56 185.767L1410.55 152.013M1267.56 185.767L1163.44 210.346M1283.91 205.35L1423.43 172.415M1283.91 205.35L1185.34 228.617M1283.91 205.35L1306.18 274.079M1378.29 27.7711L1381.66 -4.52339M1381.66 -4.52339L1333.66 -128.712M1410.55 152.013L1423.43 172.415M1410.55 152.013L1392.56 102.784M1423.43 172.415L1455.36 164.877M1423.43 172.415L1442.88 296.749M710.307 137.841L719.305 113.872M710.307 137.841L796.378 117.523M719.305 113.872L624.608 131.798M614.824 65.3889L609.696 93.4651M609.696 93.4651L624.608 131.798M776.548 -42.5383L773.497 3.52014M773.497 3.52014L784.927 28.6584M784.927 28.6584L787.209 38.3262M787.209 38.3262L794.637 69.7887M787.209 38.3262L857.752 20.5184M794.637 69.7887L809.333 94.6861M794.637 69.7887L869.721 52.5944M809.333 94.6861L796.378 117.523M809.333 94.6861L886.357 76.5038M796.378 117.523L797.991 146.086M797.991 146.086L783.994 164.399M797.991 146.086L769.074 160.175M1097.73 -2.84731L981.298 25.4654M1097.73 -2.84731L1084.59 -36.7742M1097.73 -2.84731L1102.41 17.0045M857.752 20.5184L869.721 52.5944M857.752 20.5184L886.799 13.1858M869.721 52.5944L886.357 76.5038M869.721 52.5944L898.829 45.5203M886.357 76.5038L916.204 69.458M886.799 13.1858L898.829 45.5203M886.799 13.1858L967.695 -7.32666M898.829 45.5203L916.204 69.458M898.829 45.5203L981.298 25.4654M981.298 25.4654L967.695 -7.32666M967.695 -7.32666L963.211 -51.1534M967.695 -7.32666L1084.59 -36.7742M963.211 -51.1534L969.158 -75.6322M963.211 -51.1534L1079.82 -78.6813M969.158 -75.6322L1083.69 -102.668M1084.59 -36.7742L1079.82 -78.6813M1079.82 -78.6813L1083.69 -102.668M1102.41 17.0045L976.498 79.6359M783.994 164.399L809.057 160.314M783.994 164.399L777.888 194.409M783.994 164.399L757.134 180.995M818.789 293.17L828.667 300.867M818.789 293.17L841.196 287.148M818.789 293.17L798.277 274.571M818.789 293.17L784.933 289.442M828.667 300.867L800.598 299.926M828.667 300.867L858.051 301.172M757.134 180.995L769.074 160.175M757.134 180.995L743.636 210.736M757.134 180.995L766.665 205.849M800.598 299.926L784.933 289.442M784.933 289.442L775.526 268.221M784.933 289.442L761.622 277.614M743.636 210.736L740.507 234.733M743.636 210.736L759.607 216.306M761.622 277.614L744.602 252.08M761.622 277.614L775.526 268.221M645.102 227.928L740.507 234.733M645.102 227.928L645.08 249.568M740.507 234.733L744.602 252.08M740.507 234.733L757.166 230.8M659.722 288.599L744.602 252.08M659.722 288.599L650.895 274.2M744.602 252.08L761.916 250.923M645.08 249.568L650.895 274.2M645.08 249.568L626.339 253.992M650.895 274.2L631.581 276.196M626.339 253.992L631.581 276.196M824.216 223.03L842.082 218.813M824.216 223.03L821.876 203.804M824.216 223.03L804.78 227.618M824.216 223.03L827.039 231.887M842.082 218.813L838.251 199.938M827.039 231.887L844.255 228.016M827.039 231.887L832.686 249.6M827.039 231.887L806.91 236.639M844.255 228.016L849.191 245.704M821.876 203.804L838.251 199.938M821.876 203.804L803.828 208.064M838.251 199.938L835.808 180.737M832.686 249.6L849.191 245.704M832.686 249.6L814.639 253.86M849.191 245.704L854.843 261.218M814.639 253.86L806.91 236.639M814.639 253.86L823.174 268.694M806.91 236.639L804.78 227.618M806.91 236.639L784.003 242.046M804.78 227.618L803.828 208.064M804.78 227.618L781.874 233.026M803.828 208.064L804.265 188.183L809.057 160.314M841.196 287.148L823.174 268.694M841.196 287.148L858.051 301.172M757.166 230.8L781.874 233.026M757.166 230.8L759.607 216.306M757.166 230.8L761.916 250.923M761.916 250.923L784.003 242.046M761.916 250.923L775.526 268.221M777.888 194.409L781.874 233.026M777.888 194.409L803.275 188.416L835.808 180.737M777.888 194.409L766.665 205.849M781.874 233.026L784.003 242.046M784.003 242.046L798.277 274.571M798.277 274.571L823.174 268.694M798.277 274.571L775.526 268.221M854.843 261.218L823.174 268.694M759.607 216.306L766.665 205.849M1024.77 284.104L1153.4 282.681M1024.77 284.104L1018.43 313.153M1024.77 284.104L991.253 291.147M1203.84 282.123L1193.57 260.372M1203.84 282.123L1153.4 282.681M1203.84 282.123L1219.36 291.643M1133.86 53.9733L1133.26 85.6123M1133.26 85.6123L1144.82 153.207M1144.82 153.207L1163.44 210.346M1163.44 210.346L1185.34 228.617M1185.34 228.617L1193.57 260.372M1462.6 440.8L1531.53 434.784M1462.6 440.8L1462.34 421.083M1462.6 440.8L1340.93 366.19M1531.53 434.784L1462.34 421.083M1531.53 434.784L1493.44 299.831M1531.53 434.784L1544.02 431.835M1462.34 421.083L1328.45 342.809M1462.34 421.083L1442.88 296.749M1193.57 260.372L1146.62 266.363M1193.57 260.372L1328.45 342.809M1193.57 260.372L1306.18 274.079M1146.62 266.363L1153.4 282.681M1153.4 282.681L1018.43 313.153M1211.41 -126.592L1209.85 -161.155M1211.41 -126.592L1225.73 -48.8445M1209.85 -161.155L1190.98 -144.837M1328.45 342.809L1340.93 366.19M1328.45 342.809L1306.18 274.079M1340.93 366.19L1311.63 348.223M1455.36 164.877L1493.44 299.831M1455.36 164.877L1479.65 159.142M1561.56 139.807L1479.65 159.142M1561.56 139.807L1562.48 150.578M1392.56 102.784L1521.9 86.8891M1586.76 78.9184L1583.81 66.4287M1586.76 78.9184L1550.47 83.5346M1586.76 78.9184L1626.46 67.0704M1655.3 49.5515L1657.27 57.878L1626.46 67.0704M1655.3 49.5515L1583.81 66.4287M1655.3 49.5515L1622.59 50.6503M1583.81 66.4287L1518.68 73.2573L1388.4 86.9168L1514.2 54.2906M1521.9 86.8891L1525.83 103.556M1521.9 86.8891L1550.47 83.5346M1514.2 54.2906L1505.52 17.5152M1514.2 54.2906L1542.61 53.3364M1503.02 -11.9289L1567.58 -27.1675M1503.02 -11.9289L1532.64 11.1127M1567.58 -27.1675L1565.6 -47.9453M1567.58 -27.1675L1574.29 1.28135M1565.6 -47.9453L1567.24 -46.1349M1532.64 11.1127L1505.52 17.5152M1532.64 11.1127L1574.29 1.28135M1532.64 11.1127L1542.61 53.3364M1574.29 1.28135L1581.46 -30.4446L1567.24 -46.1349M1553.65 96.9893L1525.83 103.556M1553.65 96.9893L1594.6 87.3218M1553.65 96.9893L1550.47 83.5346M1594.6 87.3218L1599.35 107.444M1594.6 87.3218L1613.23 104.167L1612.46 110.21M1225.73 -48.8445L1333.66 -128.712M1333.66 -128.712L1378.66 -156.917M1306.18 274.079L1442.88 296.749M1442.88 296.749L1493.44 299.831M1479.65 159.142L1510.77 290.978M1544.02 431.835L1585.67 422.004L1574.63 292.753M1544.02 431.835L1513.23 301.387M1510.77 290.978L1573.22 276.238M1510.77 290.978L1513.23 301.387M1573.22 276.238L1574.14 287.009M1573.22 276.238L1571.25 253.26M1513.23 301.387L1574.14 287.009M1574.14 287.009L1574.63 292.753M1542.61 53.3364L1622.59 50.6503M610.162 371.721L637.148 383.595M783.524 448.003L834.82 454.208M783.524 448.003L778.283 425.799M783.524 448.003L757.356 436.489M834.82 454.208L823.206 429.845M834.82 454.208L896.25 439.706M982.668 419.306L1002.17 396.388M982.668 419.306L973.262 398.085M982.668 419.306L957.68 425.205M1002.17 396.388L989.297 375.987M1002.17 396.388L1056.32 383.608M1282.33 330.255L1056.32 383.608M1282.33 330.255L1250.84 310.949M1282.33 330.255L1311.63 348.223M1282.33 330.255L1297.88 351.467M778.283 425.799L753.614 420.634M778.283 425.799L823.206 429.845M778.283 425.799L780.965 406.12M753.614 420.634L757.356 436.489M753.614 420.634L780.965 406.12M753.614 420.634L717.994 406.334M757.356 436.489L720.68 420.351M780.965 406.12L826.777 395.305M780.965 406.12L768.79 398.006M955.191 364.992L989.297 375.987M955.191 364.992L946.76 400.679M955.191 364.992L954.979 354.054M955.191 364.992L892.107 379.883M989.297 375.987L973.262 398.085M989.297 375.987L981.887 347.702M989.297 375.987L1035.8 365.008M823.206 429.845L826.777 395.305M823.206 429.845L884.983 415.262M826.777 395.305L824.32 384.897M826.777 395.305L892.107 379.883M717.994 406.334L713.977 383.108M717.994 406.334L768.79 398.006M717.994 406.334L720.68 420.351M717.994 406.334L674.089 399.85M713.977 383.108L789.27 366.8M713.977 383.108L669.326 386.425M713.977 383.108L725.001 358.406M789.27 366.8L795.167 391.779M789.27 366.8L818.424 359.918M789.27 366.8L790.232 346.04M795.167 391.779L768.79 398.006M795.167 391.779L824.32 384.897M818.424 359.918L824.32 384.897M818.424 359.918L886.448 343.86M818.424 359.918L820.712 340.262M832.014 324.36L893.538 311.682M832.014 324.36L820.712 340.262M832.014 324.36C823.632 326.122 805.941 330.091 798.286 331.7M824.32 384.897L889.65 369.475M637.148 383.595L633.115 375.825M637.148 383.595L669.326 386.425M637.148 383.595L674.089 399.85M720.68 420.351L674.089 399.85M946.76 400.679L973.262 398.085M946.76 400.679L957.68 425.205M946.76 400.679L884.983 415.262M957.68 425.205L896.25 439.706M954.472 327.802L964.78 296.71M954.472 327.802L954.979 354.054M954.472 327.802L886.448 343.86M954.472 327.802L981.586 321.592M964.78 296.71L893.538 311.682M964.78 296.71L991.253 291.147M954.979 354.054L889.65 369.475M954.979 354.054L981.887 347.702M893.538 311.682L886.448 343.86M886.448 343.86L889.65 369.475M889.65 369.475L892.107 379.883M892.107 379.883L884.983 415.262M884.983 415.262L896.25 439.706M1219.36 291.643L1024.23 337.706M1219.36 291.643L1250.84 310.949M981.887 347.702L1024.23 337.706M981.887 347.702L981.586 321.592M1018.43 313.153L1024.23 337.706M1018.43 313.153L981.586 321.592M1024.23 337.706L1035.8 365.008M981.586 321.592L991.253 291.147M1035.8 365.008L1056.32 383.608M1035.8 365.008L1250.84 310.949M820.712 340.262L790.232 346.04M633.115 375.825L670.29 368.778M675.681 357.466L670.29 368.778M675.681 357.466C699.151 352.534 720.165 348.117 742.007 343.527M670.29 368.778L669.326 386.425M670.29 368.778L725.001 358.406M669.326 386.425L674.089 399.85M725.001 358.406L742.007 343.527M725.001 358.406L790.232 346.04M742.007 343.527C759.65 339.819 777.833 335.998 798.286 331.7M790.232 346.04L798.286 331.7M1172.12 -128.519L1173.1 -139.89M1172.12 -128.519L1190.98 -144.837M1173.1 -139.89L1190.98 -144.837M1173.1 -139.89L1171.49 -162.22L1183.29 -165.005L1190.98 -144.837M1311.63 348.223L1316.06 366.978L1305.78 369.403L1297.88 351.467M1311.63 348.223L1297.88 351.467M1442.13 -212.921L1456.83 -216.391M1592.3 -248.372L1592.9 -202.363M1592.3 -248.372L1617.28 -240.349M1592.3 -248.372L1519.42 -231.167M1642.26 -232.327L1629.77 -236.338M1642.26 -232.327L1629.73 -226.427M1642.26 -232.327L1660.02 -240.915M1592.9 -202.363L1583.09 -166.349M1592.9 -202.363L1617.42 -185.441M1592.9 -202.363L1517.28 -184.36M1471.52 -219.861L1456.83 -216.391M1471.52 -219.861L1519.42 -231.167M1583.09 -166.349L1617.42 -185.441M1583.09 -166.349L1528.86 -153.549M1583.09 -166.349L1584.07 -148.267M1474.64 -140.75L1486.28 -114.927M1474.64 -140.75L1528.86 -153.549M1617.42 -185.441L1617.28 -240.349M1617.42 -185.441L1630.95 -188.637M1617.42 -185.441L1625.04 -146.95L1635.55 -117.933M1617.28 -240.349L1629.77 -236.338M1505.07 -73.2131L1499.4 -85.7934M1505.07 -73.2131L1548.43 -83.4482M1505.07 -73.2131L1508.35 -65.9298M1666.43 -111.304L1651.52 -121.702M1666.43 -111.304L1670 -122.556M1666.43 -111.304L1653.07 -108.15M1651.52 -121.702L1653.57 -133.174M1651.52 -121.702L1638.41 -150.84M1651.52 -121.702L1635.55 -117.933M1630.95 -188.637L1629.64 -207.368M1630.95 -188.637L1638.41 -150.84M1629.77 -236.338L1629.73 -226.427M1499.4 -85.7934L1486.28 -114.927M1499.4 -85.7934L1538.37 -94.9933M1629.73 -226.427L1629.64 -207.368M1629.73 -226.427L1637.4 -212.603M1660.02 -240.915L1665.83 -210.056M1660.02 -240.915L1668.05 -229.626M1629.64 -207.368L1637.4 -212.603M1629.64 -207.368L1634.52 -196.434M1656.35 -225.399L1658.89 -208.418M1656.35 -225.399L1665.83 -210.056M1656.35 -225.399L1637.4 -212.603M1658.89 -208.418L1663.81 -187.602M1658.89 -208.418L1634.52 -196.434M1663.81 -187.602L1639.39 -185.5L1634.52 -196.434M1663.81 -187.602L1664.12 -189.872M1665.83 -210.056L1672.95 -198.55M1665.83 -210.056L1665.15 -197.441M1647.08 -165.339L1667.9 -170.255M1647.08 -165.339L1646.85 -148.437M1647.08 -165.339L1645.03 -180.238L1675.57 -187.448M1667.9 -170.255L1670.57 -149.641M1667.9 -170.255L1677.31 -149.034M1670.57 -149.641L1677.97 -133.807M1670.57 -149.641L1646.85 -148.437M1677.97 -133.807L1672.19 -133.48M1677.97 -133.807L1677.48 -142.114M1653.57 -133.174L1646.85 -148.437M1653.57 -133.174L1672.19 -133.48M1677.31 -149.034L1677.48 -142.114M1677.31 -149.034L1684.74 -148.591M1672.95 -198.55L1671 -217.131L1668.05 -229.626M1672.95 -198.55L1665.15 -197.441M1665.15 -197.441L1664.12 -189.872M1672.19 -133.48L1670 -122.556M1670 -122.556L1705.5 -127.852M1705.5 -127.852L1695.6 -146.028M1705.5 -127.852L1702.46 -148.013L1696.82 -164.628M1695.6 -146.028L1693.51 -170.439M1695.6 -146.028L1677.48 -142.114M1693.51 -170.439L1682.63 -167.872M1693.51 -170.439L1696.82 -164.628M1675.57 -187.448L1677.54 -166.67L1684.74 -148.591M1675.57 -187.448L1682.63 -167.872M1684.74 -148.591L1682.63 -167.872M1668.05 -229.626L1678.27 -234.969M1678.27 -234.969L1679.39 -214.721L1688.1 -193.337M1678.27 -234.969L1686.66 -214.972L1686.85 -212.087M1688.1 -193.337L1664.12 -189.872M1688.1 -193.337L1686.85 -212.087M1701.92 -165.832L1693.94 -190.32L1690.78 -213.016M1701.92 -165.832L1698.8 -191.467L1690.78 -213.016M1701.92 -165.832L1696.82 -164.628M1690.78 -213.016L1686.85 -212.087M1638.41 -150.84L1584.61 -138.141M1486.28 -114.927L1527 -124.541M1528.86 -153.549L1517.28 -184.36M1528.86 -153.549L1527.67 -134.954M1527 -124.541L1584.61 -138.141M1527 -124.541L1527.67 -134.954M1527 -124.541L1530.88 -114.468M1538.37 -94.9933L1548.43 -83.4482M1538.37 -94.9933L1594.95 -108.348M1538.37 -94.9933L1534.63 -104.73M1548.43 -83.4482L1609.51 -97.8676M1548.43 -83.4482L1605.06 -88.7603L1642.24 -74.0937M1517.28 -184.36L1519.42 -231.167M1584.61 -138.141L1584.07 -148.267M1584.61 -138.141L1588.14 -127.984M1594.95 -108.348L1609.51 -97.8676M1594.95 -108.348L1591.54 -118.166M1594.95 -108.348L1635.55 -117.933M1609.51 -97.8676L1653.07 -108.15M1527.67 -134.954L1584.07 -148.267M1530.88 -114.468L1588.14 -127.984M1530.88 -114.468L1534.63 -104.73M1588.14 -127.984L1591.54 -118.166M1591.54 -118.166L1534.63 -104.73M1635.55 -117.933L1653.07 -108.15M1562.48 150.578L1607.05 140.056M1562.48 150.578L1564.32 172.12M1710.48 115.642L1711.21 138.176M1710.48 115.642L1672.99 124.49M1710.48 115.642L1724.07 132.856M1711.95 160.71L1723.66 204.097M1711.95 160.71L1672.74 169.968M1711.95 160.71L1711.21 138.176M1723.66 204.097L1739.14 237.07M1723.66 204.097L1705.96 208.275M1739.14 237.07L1733.09 244.027M1739.14 237.07L1739.06 218.043M1720.7 258.272L1733.09 244.027M1720.7 258.272L1693.64 224.369M1720.7 258.272L1695.01 264.335M1574.63 292.753L1588.02 289.593M1672.74 169.968L1610.43 184.675M1672.74 169.968L1676.26 184.886M1672.74 169.968L1672.25 158.591M1679.78 199.805L1705.96 208.275M1679.78 199.805L1615.84 214.898M1679.78 199.805L1676.29 228.466M1679.78 199.805L1676.26 184.886M1568.92 225.974L1571.25 253.26M1568.92 225.974L1564.32 172.12M1568.92 225.974L1615.84 214.898M1705.96 208.275L1733.09 244.027M1705.96 208.275L1693.64 224.369M1693.64 224.369L1676.29 228.466M1571.25 253.26L1613.81 243.213M1571.25 253.26L1588.02 289.593M1607.05 140.056L1606.41 162.183M1607.05 140.056L1672.99 124.49M1606.41 162.183L1564.32 172.12M1606.41 162.183L1671.76 147.214M1606.41 162.183L1608.42 173.429M1711.21 138.176L1671.76 147.214M1615.84 214.898L1613.81 243.213M1615.84 214.898L1613.14 199.787M1613.81 243.213L1631.07 279.429M1613.81 243.213L1676.29 228.466M1631.07 279.429L1695.01 264.335M1631.07 279.429L1588.02 289.593M1676.29 228.466L1695.01 264.335M1610.43 184.675L1613.14 199.787M1610.43 184.675L1608.42 173.429M1676.26 184.886L1613.14 199.787M1671.76 147.214L1672.99 124.49M1671.76 147.214L1672.25 158.591M1608.42 173.429L1672.25 158.591M1753.15 119.485L1754.35 146.306M1753.15 119.485L1764.07 144.012M1753.15 119.485L1732 129.21M1754.35 146.306L1764.45 167.363M1754.35 146.306L1719.65 154.499M1764.45 167.363L1736.86 168.419M1764.45 167.363L1764.14 148.39M1764.07 144.012L1769.38 142.759M1764.07 144.012L1764.14 148.39M1719.65 154.499L1727.42 168.781L1736.86 168.419M1719.65 154.499L1717.12 136.05L1724.07 132.856M1724.07 132.856L1732 129.21M1724.07 132.856L1714.42 92.0014M1766.09 174.302L1768.79 197.106M1766.09 174.302L1740.35 183.219M1766.09 174.302L1771.14 184.83M1768.79 197.106L1776.41 218.016M1768.79 197.106L1730.55 206.133M1776.41 218.016L1776.19 195.359L1771.14 184.83M1776.41 218.016L1739.06 218.043M1730.55 206.133L1739.06 218.043M1730.55 206.133L1731.51 186.128L1740.35 183.219M1740.35 183.219L1736.86 168.419M1642.24 -74.0937L1644.04 -66.461M1642.24 -74.0937L1706.25 -100.926M1644.04 -66.461L1627.18 -60.283M1644.04 -66.461L1689.44 -85.2359M1627.18 -60.283L1593.11 -74.2173M1627.18 -60.283L1628.42 -36.402M1593.11 -74.2173L1508.35 -65.9298M1593.11 -74.2173L1593.86 -52.4179M1628.42 -36.402L1642.72 -19.2675M1628.42 -36.402L1601.5 -27.5769M1628.42 -36.402L1697.69 -47.628M1642.72 -19.2675L1612.76 9.04766M1642.72 -19.2675L1708.1 -18.5855M1612.76 9.04766L1601.5 -27.5769M1612.76 9.04766L1616.37 24.3129M1593.86 -52.4179L1567.24 -46.1349M1593.86 -52.4179L1601.5 -27.5769M1689.44 -85.2359L1697.69 -47.628M1689.44 -85.2359L1701.88 -63.5801M1697.69 -47.628L1708.1 -18.5855M1708.1 -18.5855L1707.7 -30.2118M1706.25 -100.926L1714.61 -65.5383M1706.25 -100.926L1721.08 -67.0676L1722.14 -33.62M1714.61 -65.5383L1722.14 -33.62M1714.61 -65.5383L1701.88 -63.5801M1722.14 -33.62L1707.7 -30.2118M1707.7 -30.2118L1706.85 -54.9178L1701.88 -63.5801M1622.59 50.6503L1616.37 24.3129M1626.46 67.0704L1630.92 85.9364M1635.37 104.802L1612.46 110.21M1635.37 104.802L1642.93 108.879M1635.37 104.802L1630.92 85.9364M1612.46 110.21L1611.3 119.273M1616.37 24.3129L1661.25 31.2984M1661.25 31.2984L1665.48 64.7298M1661.25 31.2984L1714.16 7.08788M1665.48 64.7298L1674.84 76.4387M1665.48 64.7298L1630.92 85.9364M1665.48 64.7298L1722.8 46.8026M1674.84 76.4387L1733.89 72.0228M1674.84 76.4387L1658.88 92.6587M1642.93 108.879L1611.3 119.273M1642.93 108.879L1658.88 92.6587M1642.93 108.879L1714.42 92.0014M1714.16 7.08788L1722.8 46.8026M1714.16 7.08788L1716.5 12.2869M1722.8 46.8026L1733.89 72.0228M1733.89 72.0228L1732.59 62.8061M1716.5 12.2869L1729.56 41.2597L1732.59 62.8061M1716.5 12.2869L1730.82 3.15533M1730.82 3.15533L1738.22 40.6895L1745.4 64.9102M1730.82 3.15533L1745.46 34.1154L1745.4 64.9102M1745.4 64.9102L1732.59 62.8061M1658.88 92.6587L1720.13 78.9332M1720.13 78.9332L1727.69 83.0095M1720.13 78.9332L1714.42 92.0014M1727.69 83.0095L1729.04 98.0724M1727.69 83.0095L1756.02 72.6581M1729.04 98.0724L1734.08 110.071M1729.04 98.0724L1757.65 91.3191M1734.08 110.071L1757.22 99.4785M1734.08 110.071L1732 129.21M1757.22 99.4785L1759.47 124.5L1769.38 142.759M1757.22 99.4785L1763.22 114.911M1769.38 142.759L1765.31 120.279L1763.22 114.911M1756.02 72.6581L1757.65 91.3191M1756.02 72.6581L1763.51 95.0644L1766.13 108.363M1757.65 91.3191L1767.24 113.963M1767.24 113.963L1763.22 114.911M1767.24 113.963L1766.13 108.363M1771.14 184.83L1781.5 186.781M1781.5 186.781L1775.44 168.432L1773.38 146.209M1781.5 186.781L1780.54 167.227L1775.92 153.667M1773.38 146.209L1764.14 148.39M1773.38 146.209L1775.92 153.667M1780.04 152.694L1771.37 128.37L1770.79 107.265M1780.04 152.694L1777.42 129.141L1770.79 107.265M1780.04 152.694L1775.92 153.667M1770.79 107.265L1766.13 108.363M660.472 243.37L665.534 239.978L667.335 247.611L661.782 248.921L660.472 243.37ZM662.929 253.778L668.482 252.468L670.079 259.233L664.526 260.544L662.929 253.778ZM665.714 265.574L671.267 264.263L673.068 271.896L666.86 270.431L665.714 265.574Z" stroke="white"/>
</svg>
