<svg width="107" height="103" viewBox="0 0 107 103" fill="none" xmlns="http://www.w3.org/2000/svg">
<g clip-path="url(#clip0_1_222)">
<path d="M32.2706 84.641C31.5028 84.0864 30.9305 83.3039 30.6357 82.4053C30.3409 81.5068 30.3387 80.5383 30.6293 79.6384L31.5682 75.7649C31.7359 75.084 32.0452 74.4458 32.4761 73.8918C32.907 73.3378 33.4498 72.8803 34.0695 72.5489L37.1513 70.9338C39.0524 69.9483 40.5704 68.3598 41.4658 66.4187C42.3613 64.4777 42.5831 62.2946 42.0965 60.2139L42.0535 60.0209C41.4829 57.6908 40.0612 55.6568 38.0664 54.3166C36.0716 52.9764 33.6471 52.4264 31.2672 52.7742L27.8199 53.2673C27.119 53.3677 26.4048 53.3189 25.7242 53.1243C25.0436 52.9297 24.412 52.5936 23.8709 52.1382L20.825 49.5582C20.069 48.9942 19.5076 48.2097 19.2187 47.3133C18.9298 46.417 18.9276 45.4532 19.2124 44.5556C19.8609 42.5669 19.8423 40.4216 19.1595 38.4444C18.4766 36.4671 17.1667 34.7653 15.4277 33.5964C13.6887 32.4275 11.6152 31.8551 9.521 31.9658C7.42675 32.0764 5.42559 32.864 3.82017 34.2096C2.21475 35.5551 1.09241 37.3854 0.622875 39.4235C0.153345 41.4617 0.362171 43.5969 1.21777 45.5062C2.07337 47.4154 3.5292 48.995 5.36509 50.0059C7.20097 51.0167 9.31704 51.404 11.3933 51.1091C11.7301 51.059 12.0598 50.9876 12.3895 50.9089L13.2853 50.7374C14.0294 50.5908 14.7971 50.6143 15.5308 50.8062C16.2644 50.998 16.9449 51.3533 17.521 51.8452L21.6635 55.4185C22.2966 55.9713 22.7801 56.6741 23.0694 57.4622C23.3587 58.2502 23.4446 59.0982 23.3191 59.928L23.2187 60.5569L23.1327 61.1072V61.1572C22.9981 62.3043 23.0709 63.4662 23.3477 64.5876C23.3477 64.6519 23.3477 64.7162 23.3979 64.7734V64.8449C23.7951 66.3658 24.5633 67.7651 25.634 68.9184C25.763 69.0542 25.892 69.1829 26.0282 69.3115L26.4797 69.7617C27.0758 70.3644 27.5088 71.1079 27.7381 71.9229C27.9675 72.7378 27.9858 73.5974 27.7912 74.4213L26.5299 79.717C26.3564 80.4531 26.0163 81.1398 25.5355 81.7245C25.0548 82.3092 24.4461 82.7764 23.7562 83.0902L22.9822 83.4475C22.6663 83.5705 22.3576 83.7113 22.0577 83.8692C20.6479 84.6112 19.4458 85.6919 18.5602 87.0137C17.0966 89.1062 16.5265 91.6928 16.9755 94.2044C17.4244 96.7161 18.8555 98.947 20.954 100.406C23.0524 101.866 25.6464 102.434 28.1652 101.987C30.6839 101.539 32.9212 100.112 34.3848 98.0195C35.251 96.8355 35.8322 95.4685 36.0834 94.0245C36.1491 93.6989 36.1946 93.3695 36.2196 93.0383L36.3199 92.195C36.2626 90.7123 35.8684 89.262 35.1669 87.9534C34.4654 86.6448 33.4751 85.5122 32.2706 84.641Z" fill="#EDEDED"/>
<path d="M105.978 38.6235C105.47 37.0719 104.575 35.6745 103.377 34.5624C102.178 33.4504 100.717 32.6601 99.1283 32.2657C97.54 31.8714 95.8772 31.8859 94.296 32.3079C92.7149 32.73 91.2672 33.5457 90.0888 34.6785C89.8375 34.904 89.5982 35.1426 89.3721 35.3932L88.7916 36.0221C88.2777 36.5769 87.6445 37.0085 86.9395 37.2845C86.2345 37.5606 85.4759 37.6738 84.7207 37.6158L79.2739 37.1727C78.427 37.1028 77.6119 36.8196 76.9049 36.3496C76.1978 35.8796 75.6221 35.2382 75.2317 34.4856L74.945 33.921C74.859 33.7495 74.7802 33.5851 74.687 33.4279V33.3778C74.1212 32.3681 73.3756 31.4696 72.4868 30.7264L72.3434 30.6121L72.2789 30.5549C71.0594 29.563 69.6151 28.8834 68.0719 28.5753H68.0146L67.4627 28.4824L66.8249 28.4324C65.9872 28.2957 65.198 27.9492 64.5312 27.4255C63.8643 26.9018 63.3417 26.218 63.0121 25.4379L60.905 20.4353C60.6147 19.7365 60.4871 18.9811 60.5318 18.226C60.5765 17.4709 60.7923 16.7358 61.163 16.0759L61.5858 15.3612C61.7674 15.0753 61.9322 14.7823 62.0804 14.4822C62.7294 13.1684 63.0654 11.723 63.0622 10.2585C62.9937 7.75176 61.9469 5.3706 60.1446 3.62172C58.3423 1.87284 55.9268 0.894287 53.4119 0.894287C50.8971 0.894287 48.4816 1.87284 46.6793 3.62172C44.8769 5.3706 43.8302 7.75176 43.7617 10.2585C43.7585 11.723 44.0945 13.1684 44.7435 14.4822C44.8964 14.7823 45.0613 15.0753 45.238 15.3612L45.6609 16.0759C46.0316 16.7358 46.2474 17.4709 46.2921 18.226C46.3368 18.9811 46.2092 19.7365 45.9189 20.4353L43.8118 25.4379C43.4848 26.2143 42.9665 26.8958 42.305 27.4193C41.6435 27.9427 40.8602 28.2912 40.0277 28.4324L39.4041 28.5324L38.8451 28.6253H38.795C37.6554 28.8491 36.567 29.2803 35.5842 29.8974L35.4408 29.9903C35.412 30.0027 35.3854 30.0196 35.362 30.0404C34.0328 30.8904 32.9367 32.057 32.1727 33.435V33.485C32.0867 33.6423 32.0007 33.8138 31.9219 33.9782C28.0087 42.354 36.5732 46.9993 37.6554 47.2852C38.9773 47.6834 40.3669 47.8078 41.7387 47.6504C43.1105 47.4931 44.4356 47.0575 45.6322 46.3704L45.8114 46.2561C47.8535 44.9925 49.3476 43.013 50.0001 40.7066C50.6526 38.4002 50.4163 35.9338 49.3375 33.7924L47.7751 30.6478C47.4627 30.014 47.2884 29.3214 47.2637 28.6156C47.239 27.9098 47.3645 27.2068 47.6318 26.5528L49.1225 22.8652C49.4241 21.9738 49.9985 21.1993 50.7648 20.6506C51.5311 20.1019 52.4507 19.8068 53.394 19.8068C54.3374 19.8068 55.257 20.1019 56.0233 20.6506C56.7896 21.1993 57.364 21.9738 57.6655 22.8652L59.1849 26.5528C59.4534 27.2063 59.58 27.9091 59.5565 28.6149C59.5331 29.3207 59.36 30.0135 59.0487 30.6478L57.5079 33.7638C56.5476 35.6807 56.2588 37.863 56.6875 39.9627C57.1161 42.0624 58.2376 43.9584 59.8729 45.3484L60.0235 45.4842C61.2759 46.5371 62.7771 47.2537 64.385 47.5664C65.9928 47.879 67.6541 47.7773 69.2115 47.2709C70.6397 46.8165 71.9391 46.0302 73.0028 44.9768L75.5041 42.5541C76.0081 42.0545 76.6138 41.6684 77.2801 41.4218C77.9465 41.1753 78.6581 41.074 79.367 41.1248L83.3519 41.4249C84.2947 41.4373 85.2103 41.7418 85.9718 42.2962C86.7333 42.8507 87.303 43.6277 87.6019 44.5194C88.2111 46.3918 89.7519 49.9866 95.3923 51.0657C97.0138 51.2944 98.6669 51.108 100.196 50.5241C101.726 49.9401 103.081 48.9779 104.134 47.7278C105.188 46.4778 105.905 44.981 106.219 43.3783C106.533 41.7756 106.433 40.1197 105.928 38.5663L105.978 38.6235Z" fill="#EDEDED"/>
<path d="M71.1447 53.1457C69.8375 53.5949 68.6375 54.3085 67.6201 55.242C66.6026 56.1754 65.7895 57.3084 65.2319 58.57C65.2319 58.6343 65.1746 58.6986 65.1531 58.763C64.255 60.9836 64.2184 63.4582 65.0505 65.7044C65.8826 67.9505 67.5237 69.8071 69.6539 70.9122L72.7429 72.5274C73.3681 72.8579 73.9161 73.3166 74.3509 73.8734C74.7856 74.4301 75.0974 75.0722 75.2657 75.7576L76.2117 79.6311C76.501 80.5297 76.4983 81.4964 76.2041 82.3934C75.9099 83.2905 75.3392 84.0719 74.5734 84.6265C73.8076 85.181 72.8857 85.4802 71.9393 85.4816C70.9928 85.4829 70.0701 85.1861 69.3028 84.6337L65.8985 82.5469C65.2949 82.1796 64.776 81.6892 64.3758 81.1079C63.9756 80.5265 63.7032 79.8674 63.5764 79.1737L62.9887 75.7505C62.6396 73.6374 61.5923 71.7014 60.0133 70.2498C58.4343 68.7983 56.4141 67.9146 54.2737 67.7391H54.0658C51.6675 67.566 49.2909 68.2923 47.4016 69.7756C45.5124 71.2589 44.2468 73.3923 43.8529 75.7576C42.4912 83.9048 49.8373 86.5562 52.6826 86.9207H52.9478C54.52 87.0103 56.0902 86.7134 57.5203 86.0559H57.5705L58.0722 85.8058L58.6383 85.5199C59.3968 85.1389 60.2398 84.956 61.0884 84.9885C61.937 85.021 62.7635 85.2678 63.4904 85.7057L68.156 88.5644C68.8042 88.9566 69.3536 89.4916 69.7624 90.1283C70.1711 90.765 70.4282 91.4866 70.514 92.2377L70.6143 93.0811C70.6368 93.4189 70.6775 93.7552 70.7362 94.0887C71.0165 95.6995 71.7036 97.2125 72.7327 98.4852C73.7618 99.7578 75.0989 100.748 76.6181 101.363C78.1373 101.978 79.7884 102.196 81.4159 101.998C83.0433 101.801 84.5934 101.193 85.9201 100.232C87.2467 99.2717 88.3062 97.9901 88.9986 96.5082C89.6909 95.0263 89.9935 93.393 89.8776 91.7623C89.7617 90.1315 89.2312 88.5571 88.3362 87.1874C87.4412 85.8177 86.2111 84.6978 84.7619 83.9334C84.4609 83.7761 84.1527 83.6404 83.8373 83.5117L83.0633 83.1544C82.3742 82.8413 81.7661 82.3752 81.2854 81.7918C80.8047 81.2084 80.4641 80.5231 80.2897 79.7883L79.0283 74.4855C78.8338 73.6616 78.852 72.802 79.0814 71.9871C79.3108 71.1721 79.7438 70.4285 80.3399 69.8259L80.7914 69.3757C80.9275 69.2471 81.0565 69.1184 81.1856 68.9826V68.9398C81.9749 68.0937 82.6017 67.1102 83.0346 66.0382L83.0991 65.8739V65.7952C83.6684 64.3318 83.8701 62.7518 83.6868 61.1928V61.1356C82.4111 51.8236 73.2087 52.381 71.1447 53.1457Z" fill="#EDEDED"/>
</g>
<defs>
<clipPath id="clip0_1_222">
<rect width="106.02" height="101.242" fill="white" transform="translate(0.377808 0.894287)"/>
</clipPath>
</defs>
</svg>
