<svg width="108" height="53" viewBox="0 0 108 53" fill="none" xmlns="http://www.w3.org/2000/svg">
<g clip-path="url(#clip0_94_263)">
<path fill-rule="evenodd" clip-rule="evenodd" d="M55.9906 45.6189C53.8997 45.4861 51.4934 45.1211 49.6016 44.5734C49.2531 44.4739 47.7762 43.9262 47.3945 43.7603C40.7898 40.7069 36.1931 34.0192 36.1931 26.286C36.1931 15.6654 44.8389 7.00297 55.4596 7.00297C66.0802 7.00297 74.5767 15.5161 74.7261 26.0039H81.6792C81.5465 11.6661 69.8472 0.0331894 55.4762 0.0331894C41.1051 0.0331894 29.2399 11.7988 29.2399 26.2695C29.2399 36.2429 34.8489 44.9219 43.0633 49.3527C44.5402 50.1327 46.681 50.9458 47.3945 51.1615C49.7344 51.8585 52.6053 52.3232 55.1609 52.5223C56.0238 52.5887 59.0606 52.6219 59.9401 52.6219H107.882V45.6853H60.0065C59.3759 45.6853 56.588 45.6687 55.9574 45.6189H55.9906ZM60.0397 34.7328C59.5419 34.7328 56.8867 34.7328 56.3889 34.683C55.5591 34.6166 54.3643 34.4838 53.5844 34.3179C52.7048 34.0856 51.8917 33.7703 51.5266 33.5711C48.9378 32.1772 47.1788 29.439 47.1788 26.286C47.1788 21.7059 50.896 17.9887 55.4762 17.9887C60.0563 17.9887 63.6076 21.5565 63.7569 26.0205H70.4446C70.3119 17.8725 63.6574 11.301 55.4762 11.301C47.295 11.301 40.4745 18.0053 40.4745 26.286C40.4745 32.1274 43.8267 37.1722 48.6889 39.6448C49.4357 40.0763 50.8462 40.5409 51.2445 40.6405C52.6219 41.0056 54.4639 41.2545 55.974 41.3541C56.5216 41.4038 59.2432 41.4204 59.824 41.4204H107.882V34.7328H60.0231H60.0397ZM24.9419 52.5887H17.9389V7.00297H7.69995V0H24.9419V52.5887ZM0 10.5045V17.2419H7.69995V52.5887H14.4374V10.5045H0Z" fill="#EDEDED"/>
<path d="M95.5013 0.480469C92.9789 0.480469 90.8879 2.48843 90.8879 5.02742C90.8879 7.56642 92.9789 9.64076 95.5013 9.64076C98.0237 9.64076 100.115 7.54982 100.115 5.02742C100.115 2.50503 98.1066 0.480469 95.5013 0.480469ZM95.5013 8.89399C93.4103 8.89399 91.6181 7.25112 91.6181 5.02742C91.6181 2.80373 93.4103 1.22723 95.5013 1.22723C97.5922 1.22723 99.3678 2.9033 99.3678 5.02742C99.3678 7.26771 97.5756 8.89399 95.5013 8.89399Z" fill="#EDEDED"/>
<path d="M97.2608 6.27296C97.2608 5.75853 97.1944 5.29388 96.597 5.11133C97.3272 4.86241 97.3936 4.38117 97.3936 4.08246C97.3936 2.90424 96.3315 2.75488 95.9001 2.75488H93.8921V7.30184H94.7384V5.44323H95.4022C96.3481 5.44323 96.4311 5.87469 96.4311 6.28956C96.4311 7.06951 96.4311 7.20227 96.6136 7.31843H97.46C97.2774 7.13589 97.3438 6.98654 97.2774 6.28956L97.2608 6.27296ZM95.7175 4.77944H94.7218V3.35229H95.5682C96.149 3.35229 96.5472 3.53484 96.5472 4.08246C96.5472 4.36457 96.3979 4.77944 95.7009 4.77944H95.7175Z" fill="#EDEDED"/>
</g>
<defs>
<clipPath id="clip0_94_263">
<rect width="107.899" height="52.6219" fill="white"/>
</clipPath>
</defs>
</svg>
