<svg width="245" height="46" viewBox="0 0 245 46" fill="none" xmlns="http://www.w3.org/2000/svg">
<g clip-path="url(#clip0_94_270)">
<path d="M110.411 22.8776C110.411 32.0458 104.789 36.3705 97.8693 36.3705H93.6312V30.9214H97.6098C101.848 30.9214 104.616 28.6726 104.616 22.9641C104.616 17.3421 101.934 14.4879 97.4368 14.4879C93.1122 14.4879 89.9985 17.1691 89.9985 22.8776V45.8846H84.2035V9.64431H89.9985V12.758H90.8634C92.7662 10.1633 95.707 8.95237 98.6477 8.95237C105.048 8.95237 110.411 13.623 110.411 22.8776ZM72.0946 20.5424L68.2024 20.1964C65.1752 19.9369 63.5318 19.072 63.5318 17.3421C63.5318 15.2663 65.6076 14.0554 68.5484 14.0554C71.5756 14.0554 73.5649 15.5258 73.7379 17.5151H79.3599C79.1004 12.3256 75.1218 9.12536 68.6349 9.12536C62.1479 9.12536 57.7368 12.585 57.7368 17.6016C57.7368 21.8397 60.4181 24.521 66.4726 25.1264L70.4512 25.4724C72.873 25.7319 74.4299 26.1644 74.4299 28.4996C74.4299 30.5755 72.9595 32.0458 68.9808 32.0458C65.3482 32.0458 63.5318 30.4025 62.9264 28.1537H56.8719C57.4773 33.1702 61.7155 37.1489 68.9808 37.1489C75.8137 37.1489 80.2248 33.5162 80.2248 28.2402C80.2248 23.3966 77.1111 21.0613 72.0946 20.5424ZM132.985 28.0672C132.034 30.143 129.871 31.7864 126.758 31.7864C122.52 31.7864 119.319 29.0186 119.319 23.0506C119.319 17.3421 122.26 14.1419 126.844 14.1419C130.909 14.1419 133.245 16.5637 133.418 20.2829H122.952V24.521H139.126V21.7532C139.126 14.0554 134.023 9.03887 126.758 9.03887C120.011 9.03887 113.524 13.623 113.524 23.0506C113.524 32.4783 120.011 37.0624 126.758 37.0624C132.985 37.0624 137.396 33.2567 138.694 28.0672H132.985ZM41.1303 8.95237C34.7299 8.95237 29.9728 12.2391 29.4538 17.3421H35.6813C36.1137 15.4393 37.8436 14.0554 41.1303 14.0554C45.3684 14.0554 46.7523 16.3042 46.7523 18.9855V28.1537C44.3305 30.8349 41.5628 32.1323 38.795 32.1323C35.9408 32.1323 33.9514 30.7485 33.9514 28.2402C33.9514 25.8184 35.5083 24.348 38.5355 24.348H43.2061V20.1099H38.3625C31.7026 20.1099 27.9835 23.3966 27.9835 28.4996C27.9835 33.2567 31.6161 36.8894 37.4976 36.8894C40.7843 36.8894 43.7251 35.592 45.8874 33.9487H46.7523V36.1975H52.5473V18.553C52.5473 11.8931 48.0497 8.95237 41.1303 8.95237ZM1.60327 36.3705H7.39826V-0.21582H1.60327V36.3705ZM26.0806 9.64431H18.9882L10.512 20.8018V24.2615L19.2477 36.3705H26.4266L16.2205 22.5317L26.0806 9.64431ZM236.603 9.64431L231.846 20.1964C230.722 22.7912 229.597 25.2129 229.251 26.9428H228.386C228.04 25.2994 226.916 22.8776 225.705 20.2829L221.034 9.64431H214.634L225.878 33.6892L220.343 45.7981H226.57L243.177 9.64431H236.603ZM213.25 9.64431H206.158L197.682 20.8018V24.2615L206.417 36.3705H213.596L203.39 22.5317L213.25 9.64431ZM176.837 20.5424L172.945 20.1964C169.917 19.9369 168.274 19.072 168.274 17.3421C168.274 15.2663 170.35 14.0554 173.291 14.0554C176.318 14.0554 178.307 15.5258 178.48 17.5151H184.102C183.843 12.3256 179.864 9.12536 173.377 9.12536C166.89 9.12536 162.479 12.585 162.479 17.6016C162.479 21.8397 165.16 24.521 171.215 25.1264L175.193 25.4724C177.615 25.7319 179.172 26.1644 179.172 28.4996C179.172 30.5755 177.702 32.0458 173.723 32.0458C170.09 32.0458 168.274 30.4025 167.669 28.1537H161.614C162.22 33.1702 166.458 37.1489 173.723 37.1489C180.556 37.1489 184.967 33.5162 184.967 28.2402C184.881 23.3966 181.767 21.0613 176.837 20.5424ZM188.773 36.3705H194.568V-0.21582H188.773V36.3705ZM150.37 12.758H149.505V9.64431H143.71V36.3705H149.505V22.4452C149.505 17.6881 151.668 14.9203 156.079 14.9203H159.798V9.03887H157.636C153.657 8.95237 151.927 10.5092 150.37 12.758Z" fill="#EDEDED"/>
</g>
<defs>
<clipPath id="clip0_94_270">
<rect width="244.773" height="45.841" fill="white"/>
</clipPath>
</defs>
</svg>
