<svg width="104" height="47" viewBox="0 0 104 47" fill="none" xmlns="http://www.w3.org/2000/svg">
<g clip-path="url(#clip0_94_278)">
<path d="M56.226 11.5332H70.6444L53.3451 34.6035H38.9268L56.226 11.5332Z" fill="#EDEDED"/>
<path d="M0 15.6187C0 14.6569 0 13.4569 0.961833 12.495C1.92367 11.5332 3.12367 11.5332 4.0855 11.5332H28.2321C31.3558 11.5332 33.6413 11.5332 35.5603 12.495C37.484 13.4569 38.9268 15.3805 40.3649 17.2996L41.8077 19.2233C42.8291 20.5882 43.6077 21.6233 43.6077 23.0706C43.6077 24.518 42.7695 25.6263 41.8077 26.9134L36.0413 34.6035H21.6229L30.9939 22.1088C31.713 21.147 32.5558 19.9424 31.9558 18.6233C31.3512 17.2996 29.7939 17.2996 28.5893 17.2996H17.2947V46.1363H5.76642V17.2996H0V15.6187Z" fill="#EDEDED"/>
<path d="M73.5295 4.0855V5.76642H87.9479C88.9097 5.76642 90.3525 5.76642 91.3143 6.72825C92.2761 7.69008 92.2761 9.13283 92.2761 10.0947V24.5084C92.2761 25.4703 92.2761 26.913 91.3143 27.8703C90.3525 28.8321 88.9097 28.8321 87.9479 28.8321H80.9815C79.7815 28.8321 78.2196 28.8321 77.6196 27.513C77.0196 26.1893 77.8578 24.9893 78.5815 24.0275L87.9525 11.5328H73.5341L67.7677 19.2229C66.8013 20.5099 65.9631 21.6275 65.9631 23.0657C65.9631 24.5038 66.7418 25.5435 67.7677 26.9084L69.2105 28.8321C70.6486 30.7512 72.0914 32.6748 74.0151 33.6367C75.9341 34.5985 78.2196 34.5985 81.3433 34.5985H87.5906C91.1952 34.5985 96.6044 34.5985 100.204 30.9939C103.809 27.3893 103.809 22.1038 103.809 20.1802V14.4138C103.809 12.4947 103.809 7.20459 100.204 3.6C96.5952 0 91.1906 0 87.5861 0H77.6151C76.6532 0 75.4486 0 74.4914 0.957253C73.5296 1.91909 73.5295 3.11909 73.5295 4.08092" fill="#EDEDED"/>
</g>
<defs>
<clipPath id="clip0_94_278">
<rect width="103.805" height="46.1359" fill="white"/>
</clipPath>
</defs>
</svg>
