<svg width="225" height="50" viewBox="0 0 225 50" fill="none" xmlns="http://www.w3.org/2000/svg">
<g filter="url(#filter0_d_94_244)">
<path d="M28.8134 17.5544C26.9394 15.9388 24.0493 16.0782 22.3579 17.8699C20.6696 19.6616 20.82 22.4247 22.694 24.0418C24.568 25.6574 27.4566 25.5165 29.148 23.7263C30.8363 21.9346 30.6874 19.1729 28.8134 17.5559V17.5544Z" fill="#EDEDED"/>
<path d="M12.6687 4.18224C9.67886 6.33785 7.28912 9.21542 5.78345 12.542C7.59149 12.9676 13.0033 14.6521 15.4867 21.0617C16.2342 20.8284 17.8442 19.9318 18.96 16.4688C20.458 11.8318 23.299 7.37236 26.9842 5.87415C23.3098 2.39789 18.4689 1.58055 12.6687 4.18078V4.18224Z" fill="#EDEDED"/>
<path d="M42.5052 7.53509C38.5177 2.93186 32.4935 0 25.7525 0C20.841 0 16.3086 1.55691 12.668 4.18208C20.7182 0.570818 26.9235 3.54964 30.7223 11.0803C36.7741 12.1178 40.8844 9.23874 42.5052 7.53509Z" fill="#EDEDED"/>
<path d="M17.2464 39.9371C20.6936 41.3356 24.4954 41.8756 28.2619 41.4588C27.7447 39.7493 26.5628 34.4256 31.1275 29.165C30.5427 28.6631 28.9265 27.7783 25.2306 28.5854C20.2823 29.6639 14.8213 29.5406 11.6227 27.2383C10.312 32.0191 11.9911 36.4374 17.2464 39.9386V39.9371Z" fill="#EDEDED"/>
<path d="M5.36581 13.5542C5.36581 13.5542 5.36581 13.5542 5.36427 13.5542C3.19094 19.1582 3.54702 25.6133 6.91753 31.1938C9.37327 35.2614 13.0492 38.2344 17.2485 39.9365C9.9519 35.0765 9.54824 28.4483 14.4689 21.5368C12.3831 16.0062 7.72025 14.0428 5.36734 13.5527L5.36581 13.5542Z" fill="#EDEDED"/>
<path d="M47.3434 18.2691C46.886 14.7151 45.4739 11.299 43.2131 8.3877C41.9238 9.67167 37.6923 13.3108 30.6459 12.1618C30.4832 12.897 30.4908 14.6784 33.0694 17.3344C36.5197 20.8929 39.1396 25.4755 38.6531 29.2761C43.6383 27.9716 46.8 24.3721 47.3434 18.2691Z" fill="#EDEDED"/>
<path d="M29.3877 41.2984C35.5516 40.2962 41.2182 36.7729 44.5887 31.1924C47.0445 27.1248 47.9009 22.5949 47.3422 18.2676C46.5871 26.7389 40.7869 30.3883 32.0675 29.769C28.1015 34.2622 28.6541 39.1046 29.3877 41.2984Z" fill="#EDEDED"/>
<path d="M61.5601 31.7618H56.6455V9.83301H64.5422C65.9835 9.83301 67.2835 9.97975 68.4423 10.2718C69.5995 10.5638 70.588 11.0084 71.4076 11.6027C72.2272 12.197 72.8549 12.96 73.2908 13.8889C73.7282 14.8178 73.9462 15.9095 73.9462 17.1627C73.9462 18.4158 73.7221 19.4914 73.2739 20.4526C72.8258 21.4137 72.1765 22.2222 71.3247 22.8796C70.4729 23.537 69.4353 24.0389 68.212 24.3837C66.9888 24.7286 65.612 24.9002 64.0833 24.9002H61.5601V31.7603V31.7618ZM61.4618 20.7666H64.1493C65.635 20.7666 66.7923 20.4907 67.6227 19.936C68.453 19.3828 68.8674 18.5215 68.8674 17.352C68.8674 16.1193 68.4622 15.2477 67.6549 14.7371C66.8476 14.2249 65.6888 13.9696 64.1816 13.9696H61.4618V20.7666Z" fill="#EDEDED"/>
<path d="M88.8199 32.1376C87.1592 32.1376 85.6473 31.8911 84.2813 31.401C82.9169 30.9109 81.7427 30.1845 80.7589 29.2234C79.7751 28.2637 79.0168 27.078 78.4812 25.6679C77.9455 24.2577 77.6785 22.6348 77.6785 20.7976C77.6785 18.9604 77.9563 17.336 78.5134 15.9258C79.0706 14.5156 79.8395 13.3315 80.8234 12.3703C81.8072 11.4092 82.9691 10.6843 84.3136 10.1927C85.6566 9.70258 87.1147 9.45605 88.6879 9.45605C90.4575 9.45605 92.0353 9.71725 93.4228 10.2396C94.8088 10.762 95.9783 11.5075 96.9284 12.4789C97.8785 13.4503 98.6044 14.6404 99.1079 16.0505C99.6098 17.4607 99.8615 19.0426 99.8615 20.7961C99.8615 22.7375 99.5837 24.425 99.0265 25.8557C98.4694 27.2864 97.6943 28.4662 96.6997 29.3951C95.7051 30.3239 94.5371 31.0136 93.1941 31.4626C91.8512 31.9116 90.3931 32.1362 88.8199 32.1362V32.1376ZM88.9841 28.0025C89.8144 28.0025 90.5788 27.8558 91.2771 27.5637C91.9755 27.2717 92.5771 26.8271 93.079 26.2328C93.5809 25.6385 93.9692 24.8916 94.2424 23.9936C94.5156 23.0955 94.6522 22.0302 94.6522 20.7976C94.6522 18.3118 94.1058 16.4908 93.0146 15.3315C91.9218 14.1723 90.4805 13.5926 88.6894 13.5926C87.8805 13.5926 87.1223 13.7394 86.4117 14.0314C85.7011 14.3234 85.0856 14.768 84.5607 15.3623C84.0358 15.9566 83.6275 16.7094 83.3313 17.6177C83.0366 18.526 82.8892 19.587 82.8892 20.7976C82.8892 22.0082 83.0473 23.0955 83.365 23.9936C83.6812 24.8916 84.1125 25.6385 84.6589 26.2328C85.2053 26.8286 85.8499 27.2717 86.5928 27.5637C87.3357 27.8558 88.1338 28.0025 88.9856 28.0025H88.9841Z" fill="#EDEDED"/>
<path d="M121.882 30.8928C121.576 31.038 121.244 31.1833 120.883 31.3286C120.523 31.4739 120.096 31.6089 119.605 31.7336C119.114 31.8583 118.546 31.9566 117.901 32.0285C117.256 32.1004 116.52 32.1371 115.689 32.1371C113.941 32.1371 112.353 31.8965 110.922 31.4166C109.492 30.9368 108.268 30.231 107.252 29.3021C106.236 28.3733 105.451 27.2184 104.893 25.8405C104.336 24.4626 104.057 22.8749 104.057 21.0788C104.057 19.2827 104.336 17.5336 104.893 16.0823C105.451 14.6311 106.253 13.4146 107.302 12.4329C108.35 11.4512 109.622 10.7102 111.119 10.2083C112.615 9.70649 114.302 9.45703 116.182 9.45703C117.427 9.45703 118.546 9.56122 119.54 9.76959C120.533 9.97796 121.336 10.2186 121.948 10.4901L120.866 14.4374C120.167 14.2085 119.457 14.0412 118.736 13.9355C118.015 13.8313 117.393 13.7785 116.868 13.7785C115.732 13.7785 114.701 13.915 113.772 14.1865C112.844 14.4594 112.046 14.882 111.38 15.4587C110.713 16.0339 110.195 16.7676 109.823 17.6568C109.452 18.5476 109.268 19.5982 109.268 20.8118C109.268 23.1346 109.949 24.8823 111.315 26.0548C112.68 27.2272 114.52 27.8127 116.836 27.8127C117.361 27.8127 117.993 27.7452 118.736 27.6087C119.479 27.4737 120.2 27.2595 120.899 26.966L121.881 30.8898L121.882 30.8928Z" fill="#EDEDED"/>
<path d="M140.557 26.9693H131.743L130.105 31.7618H125.257L133.087 9.83301H139.477L147.209 31.7618H142.197L140.559 26.9693H140.557ZM133.087 22.8342H139.214L136.168 13.6248L133.087 22.8342Z" fill="#EDEDED"/>
<path d="M158.384 31.7618H153.47V14.156H146.948V9.83301H164.872V14.156H158.384V31.7618Z" fill="#EDEDED"/>
<path d="M178.304 32.1376C176.645 32.1376 175.132 31.8911 173.766 31.401C172.4 30.9109 171.227 30.1845 170.244 29.2234C169.26 28.2637 168.501 27.078 167.966 25.6679C167.43 24.2577 167.163 22.6348 167.163 20.7976C167.163 18.9604 167.442 17.336 168 15.9258C168.557 14.5156 169.327 13.3315 170.31 12.3703C171.292 11.4092 172.455 10.6843 173.8 10.1927C175.144 9.70258 176.602 9.45605 178.174 9.45605C179.944 9.45605 181.522 9.71725 182.909 10.2396C184.295 10.762 185.464 11.5075 186.415 12.4789C187.365 13.4503 188.091 14.6404 188.594 16.0505C189.096 17.4607 189.348 19.0426 189.348 20.7961C189.348 22.7375 189.07 24.425 188.513 25.8557C187.956 27.2864 187.18 28.4662 186.186 29.3951C185.191 30.3239 184.023 31.0136 182.68 31.4626C181.336 31.9116 179.879 32.1362 178.306 32.1362L178.304 32.1376ZM178.469 28.0025C179.298 28.0025 180.062 27.8558 180.762 27.5637C181.462 27.2717 182.062 26.8271 182.564 26.2328C183.066 25.6385 183.454 24.8916 183.727 23.9936C184 23.0955 184.137 22.0302 184.137 20.7976C184.137 18.3118 183.59 16.4908 182.499 15.3315C181.406 14.1723 179.965 13.5926 178.174 13.5926C177.367 13.5926 176.607 13.7394 175.896 14.0314C175.187 14.3234 174.569 14.768 174.045 15.3623C173.52 15.9566 173.111 16.7094 172.816 17.6177C172.521 18.526 172.374 19.587 172.374 20.7976C172.374 22.0082 172.532 23.0955 172.848 23.9936C173.164 24.8916 173.597 25.6385 174.144 26.2328C174.688 26.8286 175.333 27.2717 176.076 27.5637C176.819 27.8558 177.615 28.0025 178.469 28.0025Z" fill="#EDEDED"/>
<path d="M220.016 31.7618H215.068L213.823 17.1949L209.105 31.7618H204.419L199.766 17.258L198.521 31.7618H193.573L195.866 9.83301H201.73L206.907 26.3735L212.02 9.83301H217.688L220.015 31.7618H220.016Z" fill="#EDEDED"/>
</g>
<defs>
<filter id="filter0_d_94_244" x="0" y="0" width="224.016" height="49.5957" filterUnits="userSpaceOnUse" color-interpolation-filters="sRGB">
<feFlood flood-opacity="0" result="BackgroundImageFix"/>
<feColorMatrix in="SourceAlpha" type="matrix" values="0 0 0 0 0 0 0 0 0 0 0 0 0 0 0 0 0 0 127 0" result="hardAlpha"/>
<feOffset dy="4"/>
<feGaussianBlur stdDeviation="2"/>
<feComposite in2="hardAlpha" operator="out"/>
<feColorMatrix type="matrix" values="0 0 0 0 0 0 0 0 0 0 0 0 0 0 0 0 0 0 0.25 0"/>
<feBlend mode="normal" in2="BackgroundImageFix" result="effect1_dropShadow_94_244"/>
<feBlend mode="normal" in="SourceGraphic" in2="effect1_dropShadow_94_244" result="shape"/>
</filter>
</defs>
</svg>
