<svg width="246" height="74" viewBox="0 0 246 74" fill="none" xmlns="http://www.w3.org/2000/svg">
<path d="M16.1058 62.37C5.66867 62.37 -0.000244141 55.172 -0.000244141 46.1532C-0.000244141 37.1344 6.6725 29.5684 17.6287 29.5684C20.5371 29.5684 23.0604 29.9332 25.2537 31.0277V36.9043C22.3454 35.2643 20.0146 34.9422 17.8694 34.9422C10.4369 34.9422 7.69352 40.1845 7.69352 45.6964C7.69352 51.8458 11.1485 56.7201 17.199 56.7201C19.8702 56.7201 22.0188 56.0134 24.5902 54.6922L26.4432 59.4546C22.586 61.7784 19.2961 62.37 16.1024 62.37M133.465 62.37C125.744 62.37 121.79 56.9501 121.79 50.4818C121.79 43.2379 127.033 38.4524 134.036 38.4524C137.133 38.4524 138.752 39.044 140.038 39.7737V44.97C138.323 43.7835 136.941 43.3726 135.036 43.3726C131.083 43.3726 128.535 46.1532 128.535 50.163C128.535 53.762 130.508 57.269 134.94 57.269C136.177 57.269 137.817 56.7562 139.577 55.8918L141.227 60.1843C139.227 61.4595 135.892 62.37 133.462 62.37M154.934 44.1023V61.9164H148.072V44.1023H141.403V38.9093H162.466L160.978 44.1023H154.937H154.934ZM188.115 41.5978C188.115 49.6141 187.782 53.808 186.259 55.7209C185.496 56.6773 184.306 57.3182 183.065 57.4957L184.97 62.37C186.541 62.3239 188.975 61.6863 190.642 60.0923C192.836 58.0413 193.547 55.4448 193.881 52.7102C194.166 50.3865 194.358 47.6553 194.358 45.2395V44.099H199.725V61.9131H206.587V38.9093H188.115V41.5978ZM110.311 38.4524C107.644 38.4524 105.595 39.6849 103.831 41.0062L103.068 38.9093H97.3029V73.1241L104.165 71.1192V61.4135C105.406 62.0512 107.025 62.37 108.789 62.37C115.888 62.37 120.174 56.5853 120.174 49.7522C120.174 42.4622 115.839 38.4524 110.311 38.4524ZM107.121 57.6338C105.88 57.6338 104.928 57.2229 104.165 56.7234V45.8344C104.976 44.6512 107.121 43.2379 108.929 43.2379C111.693 43.2379 113.313 44.924 113.313 49.6635C113.313 53.5812 111.79 57.6338 107.121 57.6338ZM172.326 38.4524C169.084 38.4524 165.945 38.9323 162.652 40.97L164.732 44.9404C166.347 44.0694 168.427 43.3924 170.861 43.3924C173.295 43.3924 175.368 44.3981 175.368 46.8171V47.2083L171.208 47.3594C165.137 47.5534 161.036 50.071 161.036 54.9124C161.036 59.4678 164.474 62.37 169.032 62.37C172.126 62.37 174.251 61.259 175.819 59.9016L176.884 61.9164H182.254V46.9749C182.254 40.9207 178.71 38.4524 172.326 38.4524ZM175.368 56.2205C174.712 56.7036 173.34 57.2854 171.518 57.2854C169.184 57.2854 167.87 56.1712 167.87 54.4325C167.87 52.6938 169.287 51.7209 172.226 51.6223L175.368 51.527V56.2205ZM219.915 46.38H216.388V37.9068L209.526 39.6652V61.9164H218.296C224.68 61.9164 230.637 60.273 230.637 53.9428C230.637 48.569 225.825 46.38 219.915 46.38ZM218.77 57.3774H216.388V50.9551H218.677C221.104 50.9551 223.776 51.32 223.776 54.0512C223.776 56.7825 221.486 57.3774 218.77 57.3774ZM66.4762 49.3874V49.2033C68.7142 48.7497 70.5741 47.3364 70.5741 44.3291C70.5741 40.74 67.4216 39.4318 64.3242 39.0342C63.3754 38.9125 61.2955 38.9093 60.137 38.9093H50.329V61.9164H58.5659C59.4769 61.9164 60.8348 61.9131 61.8937 61.8835C66.2253 61.6863 71.5745 60.2073 71.5745 54.8532C71.5745 51.573 69.7146 49.933 66.4762 49.3874ZM57.3249 43.2905H60.137C62.9456 43.2905 63.9976 44.1122 63.9976 45.5254C63.9976 47.3003 62.2822 47.8459 59.4219 47.8459H57.3249V43.2905ZM59.9926 57.5516H57.1805V51.9017H59.6591C62.9456 51.9017 64.7092 52.6314 64.7092 54.6823C64.7092 56.868 62.375 57.5516 59.9926 57.5516ZM48.0703 50.209C48.0703 43.0998 43.4946 38.4524 36.9182 38.4524C29.7229 38.4524 25.6732 44.0103 25.6732 50.4818C25.6732 56.5393 29.2003 62.37 37.7776 62.37C40.6825 62.37 43.9209 61.7356 47.259 59.7274L45.7326 55.5829C43.0168 56.8154 41.2532 57.2229 38.9189 57.2229C35.7252 57.2229 32.6759 55.3101 32.5315 52.2107H48.0703V50.209ZM32.3906 47.7046C32.3906 45.6076 33.9651 43.2379 36.7256 43.2379C39.6374 43.2379 40.9197 45.5156 41.0641 47.7046H32.3906ZM95.3399 50.209C95.3399 43.0998 90.7642 38.4524 84.1877 38.4524C76.9924 38.4524 72.9427 44.0103 72.9427 50.4818C72.9427 56.5393 76.4699 62.37 85.0472 62.37C87.9521 62.37 91.1939 61.7356 94.5286 59.7274L93.0022 55.5829C90.2898 56.8154 88.5228 57.2229 86.1885 57.2229C82.9983 57.2229 79.9489 55.3101 79.8046 52.2107H95.3399V50.209ZM79.6602 47.7046C79.6602 45.6076 81.2347 43.2379 83.9952 43.2379C86.9036 43.2379 88.1893 45.5156 88.3337 47.7046H79.6602Z" fill="#EDEDED"/>
<path d="M242.862 22.6558C242.47 22.9155 242.068 23.1193 241.658 23.2442C240.301 23.655 238.626 23.277 237.124 22.6854C236.051 22.2614 234.927 21.7125 233.748 21.019C234.363 19.5827 234.941 17.9427 235.433 16.1284C236.196 13.3116 236.56 10.8302 236.636 8.65106C236.684 7.30349 236.615 6.07097 236.461 4.95019C236.247 3.40872 235.752 1.84094 234.7 0.917372C234.367 0.631426 233.961 0.391495 233.507 0.19429C235.656 -0.0292074 237.564 -0.0456411 239.249 0.0726813C241.019 0.217298 242.82 0.634713 243.872 1.62073C244.924 2.60675 245.388 4.32571 245.574 6.01181C245.746 7.62231 245.76 9.44645 245.56 11.5105C245.358 13.545 244.945 15.8063 244.268 18.3141C243.845 19.8654 243.36 21.3477 242.865 22.6558H242.862ZM216.917 21.3806C216.875 20.927 216.893 20.4899 216.985 20.0889C217.291 18.7578 218.471 17.5647 219.76 16.6115C220.681 15.9377 221.736 15.2804 222.957 14.6493C223.95 15.8786 225.147 17.1736 226.546 18.4883C228.715 20.5293 230.781 22.0708 232.717 23.2211C233.913 23.9344 235.061 24.4931 236.155 24.927C237.657 25.5186 239.324 25.8965 240.689 25.4857C241.115 25.351 241.535 25.1373 241.94 24.8612C241.067 26.7511 240.129 28.3419 239.18 29.6763C238.162 31.0699 236.887 32.355 235.467 32.7297C234.047 33.1076 232.26 32.6344 230.64 31.9441C229.097 31.2835 227.436 30.3797 225.666 29.1833C223.926 28.0001 222.08 26.5276 220.148 24.71C218.952 23.586 217.852 22.4422 216.917 21.3806ZM231.008 0.532824C231.441 0.726741 231.826 0.960099 232.143 1.23618C233.195 2.15647 233.686 3.73082 233.906 5.27229C234.058 6.37006 234.123 7.57629 234.085 8.90085C232.473 9.10791 230.702 9.44973 228.811 9.9526C225.879 10.7283 223.448 11.6683 221.437 12.697C220.193 13.3314 219.11 14.0019 218.175 14.6921C216.886 15.6387 215.71 16.8317 215.401 18.1662C215.308 18.5869 215.291 19.0404 215.342 19.5137C214.067 17.8473 213.094 16.273 212.362 14.8203C211.605 13.2821 211.083 11.5828 211.451 10.2188C211.818 8.85483 213.142 7.60916 214.576 6.61657C215.947 5.6667 217.594 4.74313 219.564 3.87872C221.506 3.03074 223.765 2.23864 226.374 1.54842C227.99 1.12115 229.578 0.779329 231.008 0.539398V0.532824Z" fill="#EDEDED"/>
</svg>
