<svg width="79" height="80" viewBox="0 0 79 80" fill="none" xmlns="http://www.w3.org/2000/svg">
<path fill-rule="evenodd" clip-rule="evenodd" d="M78.7042 39.842C78.7042 61.5768 61.0956 79.1715 39.3769 79.1715C17.6593 79.1715 0.048584 61.5757 0.048584 39.842C0.048584 18.1244 17.6593 0.513672 39.3769 0.513672C61.0967 0.513672 78.7042 18.1244 78.7042 39.842Z" fill="#EDEDED"/>
<path fill-rule="evenodd" clip-rule="evenodd" d="M22.2166 20.8037V34.2968C24.27 31.849 26.7328 30.6154 29.5901 30.6154C31.0605 30.6154 32.3787 30.8941 33.5598 31.4546C34.7441 32.0076 35.6315 32.7193 36.2284 33.5809C36.8307 34.4522 37.238 35.4061 37.4566 36.4575C37.6753 37.5024 37.7846 39.1314 37.7846 41.3392V55.769H31.4002V42.7721C31.4002 40.1946 31.2856 38.5602 31.0423 37.8668C30.799 37.168 30.3735 36.6204 29.7594 36.2142C29.1464 35.8005 28.3801 35.5958 27.4552 35.5958C26.3995 35.5958 25.451 35.8616 24.6258 36.3857C23.7824 36.914 23.1768 37.7039 22.7931 38.7617C22.403 39.8184 22.2091 41.381 22.2166 43.4484L22.2091 55.7701H15.8354V20.8037H22.2176" fill="#2D2E37"/>
<path fill-rule="evenodd" clip-rule="evenodd" d="M47.3528 20.8037V34.2968C49.4073 31.849 51.868 30.6154 54.7242 30.6154C56.1903 30.6154 57.515 30.8941 58.7003 31.4546C59.8792 32.0076 60.7687 32.7193 61.3636 33.5809C61.9637 34.4522 62.371 35.4061 62.5907 36.4575C62.8093 37.5024 62.9197 39.1314 62.9197 41.3392V55.769H56.5429V42.7721C56.5429 40.1946 56.4229 38.5602 56.1785 37.8668C55.9352 37.168 55.5108 36.6204 54.8946 36.2142C54.2858 35.8005 53.5142 35.5958 52.5903 35.5958C51.5325 35.5958 50.5841 35.8616 49.7577 36.3857C48.9261 36.914 48.3184 37.7039 47.9294 38.7617C47.5468 39.8184 47.3528 41.381 47.3528 43.4484V55.7701H40.976V20.8037H47.3528Z" fill="#2D2E37"/>
</svg>
